<svg width="3715" height="1277" xmlns="http://www.w3.org/2000/svg" xmlns:xlink="http://www.w3.org/1999/xlink" xml:space="preserve" overflow="hidden"><g transform="translate(-250 -890)"><path d="M3628.49 1919.12 3628.49 1931.39 3682.72 1931.39 3682.72 1929.17ZM3752.53 1912.32 3764.78 1931.39 3855.46 1931.39ZM3575.34 1909.27 3455.95 1931.39 3609.85 1931.39 3609.85 1915.66ZM513.633 1902.94 360.09 1931.39 513.633 1931.39ZM605.15 1902.9 605.15 1931.39 758.894 1931.39ZM3701.37 1902.84 3701.37 1903.6 3714.52 1906.04 3713.96 1905.17ZM532.276 1901.02 532.276 1931.39 586.507 1931.39 586.507 1901.02ZM1213.13 1889.52 987.127 1931.39 1213.13 1931.39ZM1324.61 1889.47 1324.61 1931.39 1550.86 1931.39ZM1235.84 1887.18 1235.84 1931.39 1301.9 1931.39 1301.9 1887.18ZM3420.69 1880.62 3392.75 1924.1 3524.25 1899.8ZM2316.05 1878.4 2278.71 1885.32 2278.71 1931.39 2344.78 1931.39 2344.78 1883.72ZM3242.2 1873.55 2932.32 1930.97 2932.32 1931.39 3242.2 1931.39ZM3382.26 1873.5 3382.26 1905.91 3400.87 1876.95ZM3270.73 1870.61 3270.73 1931.39 3353.73 1931.39 3353.73 1870.61ZM2539.05 1865.53 2539.05 1931.39 2593.29 1931.39 2593.29 1875.57ZM2092.84 1864.01 2038.6 1874.06 2038.6 1931.39 2092.84 1931.39ZM2462.3 1851.3 2367.49 1868.87 2367.49 1887.76 2367.61 1887.95 2367.49 1887.93 2367.49 1931.39 2520.41 1931.39 2520.41 1862.07ZM2165.62 1850.53 2111.48 1860.56 2111.48 1931.39 2256 1931.39 2256 1867.28ZM1970.95 1849.62 1782.42 1884.55 1782.42 1931.39 2019.96 1931.39 2019.96 1877.52 1943.98 1891.59ZM2651.41 1847.81 2679.51 1891.55 2611.93 1879.03 2611.93 1931.39 2820.83 1931.39 2820.83 1879.2ZM2315.95 1842.09 2306 1857.58 2315.96 1859.42 2325.9 1857.59ZM2019.96 1840.54 2001.62 1843.94 1991.53 1859.64 2019.96 1854.38ZM2611.93 1840.5 2611.93 1855.93 2631.96 1859.64 2620.71 1842.13ZM2579.28 1838.62 2548.89 1844.25 2593.29 1852.47 2593.29 1838.62ZM2038.6 1838.62 2038.6 1850.94 2088.62 1841.7 2071.97 1838.62ZM2256 1833.78 2216.79 1841.05 2256 1848.31ZM2367.49 1833.74 2367.49 1849.9 2411.17 1841.83ZM2331.3 1831.44 2344.78 1852.42 2344.78 1831.44ZM2278.71 1831.44 2278.71 1852.52 2286.18 1853.9 2300.61 1831.44ZM2976.76 1802.05 2932.32 1871.21 2932.32 1901.9 3224.41 1847.94ZM2789.18 1799.73 2641.7 1827.05 2820.83 1860.24 2820.83 1848.99ZM1844.78 1796.52 1802.86 1861.76 1984.74 1828.16 1988.02 1823.06ZM819.629 1794.85 767.561 1804.49 819.629 1885.53ZM920.821 1794.81 920.821 1916.65 990.779 1807.77ZM2820.83 1793.86 2809.01 1796.05 2820.83 1814.44ZM2932.32 1793.82 2932.32 1818.38 2946.42 1796.43ZM840.243 1792.72 840.243 1917.61 849.095 1931.39 900.208 1931.39 900.208 1792.72ZM2843.54 1791.52 2843.54 1849.79 2868.06 1887.95 2843.54 1883.41 2843.54 1931.39 2859.71 1931.39 2909.61 1853.73 2909.61 1791.52ZM1655.36 1785.02 1545.46 1805.38 1626.42 1931.39 1655.36 1931.39ZM1782.42 1784.97 1782.42 1859.05 1824.96 1792.85ZM1681.24 1782.36 1681.24 1931.39 1756.54 1931.39 1756.54 1782.36ZM2581.34 1780.85 2556.36 1819.72 2601.01 1811.47ZM2052.2 1765.22 2027.28 1804.01 2083.86 1814.49ZM1085.96 1701.72 1026.97 1793.5 1160.88 1818.31ZM663.499 1687.72 579.573 1818.31 735.707 1789.47 671.873 1690.12ZM1439.1 1681.94 1353.92 1814.49 1506.19 1786.36ZM3569.92 1680.99 3567.18 1683.17 3543.16 1690.05 3437.36 1854.68 3602.68 1885.31 3618.97 1882.31 3692.89 1882.31 3700.13 1883.65ZM3081.11 1639.68 2990.03 1781.41 3196.79 1819.72ZM1098.78 1639.31 1074.64 1645.9 1084.71 1661.57 1098.91 1639.48C1099 1639.31 1098.94 1639.31 1098.78 1639.31ZM2679.2 1628.57 2594.86 1759.8 2625.18 1807 2775.95 1779.15ZM1962.2 1625.15 1953.28 1627.71 1859.9 1773 2003.13 1799.53 2038.69 1744.19ZM1035.76 1623.58 1028.34 1635 1040.89 1631.57ZM2478.26 1620.42 2477.74 1620.83 2453.73 1627.71 2337.39 1808.72 2357.17 1808.72 2473.61 1830.3 2529.14 1820.04 2567.83 1759.82ZM707.898 1618.64 674.037 1671.33 680.318 1673.12 756.875 1694ZM2148.49 1615.4 2067.62 1741.24 2120.25 1823.16 2154.56 1829.52 2267.11 1808.72 2294.51 1808.72 2178.2 1627.71 2154.19 1620.84C2151.71 1620.13 2149.76 1618.49 2148.6 1616.4ZM1489.25 1603.91 1475.27 1625.67 1509.44 1634.98ZM3518.53 1601.01 3458.16 1693.94 3534.72 1673.06 3560.15 1665.78ZM1024.61 1567.74C1024.47 1567.7 1024.41 1567.77 1024.5 1567.86L1034.61 1583.59 1041.85 1572.45ZM715.839 1567.74 699.895 1572.09 706.614 1582.43 715.953 1567.9C716.035 1567.74 715.984 1567.74 715.839 1567.74ZM2720.21 1564.75 2690.14 1611.55 2763.65 1631.59ZM2414.06 1561.81 2368.73 1631.6 2445.28 1610.73 2467.87 1604.26 2448.77 1574.53 2419.52 1566.15ZM3098.54 1559.22 3062.73 1568.99 3077.65 1592.2 3098.7 1559.43C3098.81 1559.22 3098.74 1559.22 3098.54 1559.22ZM1917.58 1555.7 1868.27 1631.6 1944.83 1610.73 1951.68 1608.77ZM1081.58 1553.03 1076.69 1560.57 1088.59 1563.81ZM2211.77 1552.46 2210.82 1560.73C2209.41 1563.28 2207.03 1565.28 2204.02 1566.14L2174.77 1574.51 2156.29 1603.26 2159.32 1602.91 2186.65 1610.72 2263.2 1631.59ZM662.089 1548.15 651.906 1563.82 669.21 1559.11ZM3046.66 1543.66C3046.5 1543.61 3046.45 1543.69 3046.54 1543.78L3046.57 1543.84 3046.95 1543.74ZM3018.03 1541.51 3010.05 1553.8 3023.56 1550.11ZM678.547 1538.94C678.454 1538.94 678.398 1539 678.454 1539.09L688.108 1553.95 722.827 1544.48ZM1912.75 1499.85C1912.57 1499.8 1912.5 1499.89 1912.61 1499.99L1922.01 1514.62 1928.77 1504.22ZM1525.03 1499.85 1460.21 1517.53 1487.22 1559.11 1525.17 1500.04C1525.27 1499.85 1525.21 1499.85 1525.03 1499.85ZM694.932 1497.58 680.118 1520.39 713.194 1524.51ZM2669.86 1487.28 2636.05 1539.34 2693.51 1523.67ZM1946.56 1476.54 1932.26 1478.33 1943.59 1481.42 1946.66 1476.69C1946.71 1476.6 1946.68 1476.54 1946.56 1476.54ZM1978.53 1472.53 1970.98 1473.48 1962.48 1486.57 1993.08 1494.92ZM2482.66 1472.07 2471.43 1473.48 2425.4 1544.35 2425.76 1544.31 2459.06 1553.82 2552.32 1579.25ZM2142.29 1469.85 2071.22 1579.26 2164.48 1553.83 2197.77 1544.3C2200.79 1543.44 2203.87 1543.88 2206.41 1545.29L2210.3 1550.19 2160.47 1473.52 2145.67 1471.65ZM3068.28 1464.14 3034.15 1516.7 3090.12 1531.96 3109.01 1526.81ZM3549.59 1453.97 3502.58 1523.27 3505.2 1523.99 3554.23 1517.88 3573.32 1515.45 3574.07 1515.37C3579.21 1514.93 3583.72 1518.73 3584.16 1523.87 3584.6 1529 3580.8 1533.52 3575.67 1533.96L3560.87 1535.82 3559.02 1538.66 3614.46 1553.78ZM1414.02 1446.1C1413.91 1446.09 1413.84 1446.17 1413.91 1446.28L1429.67 1470.54 1443.18 1449.75ZM1123.72 1446.1 1043.22 1456.17 1080.31 1513.25 1123.83 1446.28C1123.9 1446.17 1123.85 1446.1 1123.72 1446.1ZM2702.73 1436.68 2688.74 1458.22 2719.97 1462.1ZM1942.47 1417.04 1911.93 1462.07 1964.34 1455.54 1967.25 1455.17ZM2444.95 1414.04 2412.38 1462.07 2464.79 1455.54 2471.38 1454.7ZM2182.64 1407.72 2152.74 1453.75 2167.11 1455.58 2219.52 1462.1ZM1001.98 1392.37C1001.87 1392.36 1001.81 1392.43 1001.87 1392.53L1039.34 1450.19 1072.57 1401.2ZM2486.02 1353.49 2474.98 1369.78 2499.11 1372.78ZM3021.73 1350.44C3021.61 1350.43 3021.55 1350.51 3021.61 1350.63L3064.79 1417.08 3101.6 1360.44ZM2731.42 1350.44 2671.84 1357.9 2699.91 1399.29 2731.53 1350.63C2731.6 1350.51 2731.56 1350.44 2731.42 1350.44ZM2141.65 1347.29 2124.39 1372.73 2156.22 1368.77ZM3058.85 1325.37 3031.37 1328.8 3063.93 1332.86ZM3129.87 1316.48 3084.17 1322.2 3105.76 1354.03 3130.01 1316.71C3130.1 1316.57 3130.04 1316.48 3129.87 1316.48ZM559.392 1297.74 405.598 1524.47 458.012 1517.94 477.103 1515.52 477.858 1515.44C482.988 1515 487.503 1518.8 487.943 1523.93 488.383 1529.06 484.581 1533.58 479.451 1534.02L464.649 1535.89 361.946 1694.01 438.503 1673.13 465.833 1665.31C470.783 1663.89 475.943 1666.76 477.359 1671.71 478.775 1676.66 475.909 1681.82 470.96 1683.24L446.948 1690.11 296.528 1924.17 522.749 1882.37 596.677 1882.37 819.629 1923.68 819.629 1920.08 747.723 1808.17 536.419 1847.32 643.874 1680.08 642.274 1678.81C641.116 1676.72 640.754 1674.19 641.462 1671.72 642.878 1666.77 648.038 1663.9 652.988 1665.32L653.302 1665.41 695.555 1599.64 681 1577.25 605.103 1597.95 646.069 1534.91 639.341 1534.06C634.385 1533.52 630.733 1529.17 631.054 1524.19 631.384 1519.05 635.817 1515.15 640.954 1515.48L641.69 1515.56 657.348 1517.55 682.362 1479.05ZM3655.61 1297.67 3566.98 1428.34 3679.18 1601.03 3542.69 1563.8 3535.61 1574.71 3738.7 1890.79 3918.47 1924.1 3768.09 1690.05 3744.08 1683.18C3739.13 1681.77 3736.26 1676.6 3737.68 1671.65 3739.09 1666.7 3744.25 1663.83 3749.2 1665.25L3776.53 1673.06 3853.09 1693.93 3750.36 1535.86 3735.56 1533.99C3730.6 1533.45 3726.95 1529.1 3727.27 1524.13 3727.6 1518.99 3732.03 1515.09 3737.17 1515.42L3737.91 1515.49 3757 1517.92 3809.41 1524.44ZM2566.17 1235.33 2499.76 1333.24 2546.07 1401.52 2460.69 1390.84 2458.79 1393.64 2603.84 1616.86 2481.84 1583.58C2481.68 1583.53 2481.62 1583.61 2481.71 1583.7L2581.35 1738.78 2656.74 1621.44 2654.64 1620.84C2649.69 1619.43 2646.82 1614.26 2648.24 1609.31 2649.66 1604.36 2654.82 1601.49 2659.77 1602.91L2667.27 1605.05 2706.61 1543.83C2706.7 1543.66 2706.64 1543.66 2706.48 1543.66L2584.48 1576.94 2652.38 1472.44 2646.12 1471.65C2641.16 1471.11 2637.51 1466.76 2637.83 1461.79 2638.16 1456.65 2642.6 1452.75 2647.73 1453.08L2648.47 1453.15 2663.66 1455.08 2688.88 1416.26 2651.06 1360.5 2642.25 1361.6 2647.03 1354.55ZM2065.72 1235.33 1958.24 1393.79 2051.8 1537.78 1947.66 1509.37 1933.07 1531.84 1979.27 1603.73 1983.69 1609.3 1983.56 1610.42 2054.1 1720.21 2141.78 1583.75C2141.87 1583.58 2141.81 1583.58 2141.65 1583.58L2019.65 1616.86 2166.7 1390.55C2166.77 1390.43 2166.73 1390.36 2166.59 1390.36L2077.42 1401.52 2127.93 1327.06ZM1268.87 1152.26 1081.52 1428.47 1145.37 1420.52 1168.63 1417.56 1169.55 1417.46C1175.8 1416.92 1181.3 1421.56 1181.83 1427.81 1182.37 1434.06 1177.74 1439.56 1171.49 1440.1L1153.46 1442.37 1093.87 1534.11 1135.35 1597.95 1064.89 1578.73 1048.1 1604.58 1061.78 1625.88 1121.6 1609.56 1154.9 1600.03C1160.93 1598.31 1167.21 1601.8 1168.94 1607.83 1170.66 1613.86 1167.17 1620.15 1161.14 1621.88L1131.89 1630.25 1098.23 1682.62 1204.03 1847.28 1014.93 1812.24 948.653 1915.37 1224.23 1864.46 1314.29 1864.46 1589.09 1915.37 1521.29 1809.86 1299.73 1850.91 1423.7 1657.97 1405.89 1630.26 1376.64 1621.89C1370.61 1620.16 1367.12 1613.87 1368.85 1607.84 1370.57 1601.81 1376.86 1598.32 1382.89 1600.04L1416.18 1609.55 1449.05 1618.51 1473.75 1580.07 1437.19 1523.81 1385.98 1537.78 1416.12 1491.39 1384.3 1442.42 1366.26 1440.15C1360.23 1439.48 1355.78 1434.19 1356.17 1428.13 1356.57 1421.86 1361.97 1417.12 1368.23 1417.52L1369.13 1417.61 1392.38 1420.56 1456.23 1428.51ZM870.225 1125.66 700.173 1376.37 758.128 1369.15 779.237 1366.47 780.072 1366.38C785.745 1365.89 790.737 1370.09 791.224 1375.77 791.71 1381.44 787.506 1386.44 781.834 1386.92L765.467 1388.99 705.961 1480.6 745.096 1538.29 766.776 1532.09C772.249 1530.52 777.955 1533.69 779.52 1539.17 781.086 1544.64 777.917 1550.35 772.445 1551.92L745.894 1559.52 718.957 1601.43 799.166 1724.87 699.017 1697.55C698.886 1697.51 698.84 1697.58 698.914 1697.65L755.551 1785.8 829.709 1772.1 911.452 1772.1 1002.82 1789.03 1072.44 1680.67 1053.76 1651.6 976.78 1672.6 1022.27 1602.59 994.597 1559.53 968.047 1551.93C962.574 1550.36 959.406 1544.65 960.971 1539.18 962.537 1533.7 968.243 1530.53 973.716 1532.1L1003.94 1540.73 1053.65 1554.29 1068.02 1532.17 974.994 1389.03 958.627 1386.97C953.146 1386.37 949.109 1381.56 949.463 1376.05 949.828 1370.37 954.73 1366.06 960.41 1366.43L961.224 1366.51 982.332 1369.19 1040.29 1376.41ZM2311.75 1096.53 2152.92 1330.68 2177.01 1366.18 2188.25 1364.78 2211.5 1361.83 2212.42 1361.73C2218.67 1361.19 2224.17 1365.82 2224.71 1372.08 2225.24 1378.33 2220.61 1383.83 2214.36 1384.37L2196.33 1386.64 2193.67 1390.74 2258.08 1485.7 2184.88 1476.54C2184.78 1476.53 2184.73 1476.6 2184.78 1476.69L2305.49 1662.47 2205.34 1635.15C2205.21 1635.11 2205.17 1635.17 2205.24 1635.25L2315.96 1807.56 2426.65 1635.29C2426.72 1635.15 2426.68 1635.15 2426.55 1635.15L2326.4 1662.47 2447.11 1476.69C2447.16 1476.6 2447.13 1476.54 2447.02 1476.54L2373.81 1485.7 2433.93 1397.08 2427.17 1386.68 2409.14 1384.41C2403.1 1383.75 2398.65 1378.45 2399.04 1372.39 2399.45 1366.13 2404.85 1361.38 2411.1 1361.78L2412 1361.88 2435.26 1364.83 2454.2 1367.19 2474.76 1336.88ZM2876.57 1056.61 2689.22 1332.81 2753.07 1324.86 2776.33 1321.91 2777.25 1321.81C2783.5 1321.27 2789 1325.9 2789.54 1332.16 2790.07 1338.41 2785.44 1343.91 2779.19 1344.45L2761.16 1346.72 2713.76 1419.7 2758.53 1485.7 2685.33 1476.54C2685.23 1476.53 2685.18 1476.6 2685.23 1476.69L2712.41 1518.52 2729.31 1513.91 2762.6 1504.38C2768.63 1502.65 2774.92 1506.14 2776.64 1512.18 2778.37 1518.21 2774.88 1524.5 2768.85 1526.22L2739.59 1534.59 2731.27 1547.54 2805.94 1662.47 2705.8 1635.15C2705.67 1635.11 2705.62 1635.17 2705.69 1635.25L2795.8 1775.48 2831.94 1768.8 2921.99 1768.8 2959.69 1775.79 3064.12 1613.24 3039.72 1575.27 2945.27 1601.03 2992.38 1528.53 2984.35 1526.23C2978.32 1524.51 2974.83 1518.22 2976.55 1512.19 2978.28 1506.15 2984.56 1502.66 2990.59 1504.39L3005.33 1508.6 3051.25 1437.93 2992 1346.76 2973.97 1344.49C2967.93 1343.83 2963.48 1338.53 2963.87 1332.47 2964.27 1326.21 2969.67 1321.46 2975.93 1321.86L2976.83 1321.95 3000.08 1324.91 3019.95 1327.38 3040.09 1297.7ZM3312.23 947.334 3076.86 1294.33 3157.07 1284.34 3186.29 1280.63 3187.44 1280.51C3195.3 1279.83 3202.21 1285.65 3202.88 1293.51 3203.55 1301.36 3197.73 1308.27 3189.88 1308.95L3167.23 1311.8 3081.82 1443.29 3131.98 1520.48 3169.04 1509.87C3176.62 1507.7 3184.51 1512.09 3186.68 1519.67 3188.85 1527.25 3184.46 1535.15 3176.89 1537.31L3148.24 1545.51 3168.66 1576.94 3128.48 1565.98 3094.63 1618.64 3240.1 1845.04 3256.15 1842.07 3369.29 1842.07 3417.53 1851.01 3516.09 1697.63C3516.16 1697.49 3516.11 1697.49 3515.98 1697.49L3415.83 1724.81 3507.46 1583.79 3484.37 1547.85 3478.41 1546.14 3463.25 1548.04 3466.79 1542.82 3447.62 1537.33C3440.05 1535.16 3435.66 1527.26 3437.83 1519.68 3440 1512.1 3447.89 1507.72 3455.47 1509.88L3483.67 1517.94 3538.57 1437 3457.24 1311.86 3434.58 1309.01C3427 1308.17 3421.41 1301.52 3421.9 1293.9 3422.4 1286.04 3429.19 1280.07 3437.05 1280.58L3438.18 1280.69 3467.39 1284.4 3547.61 1294.39ZM1718.89 944.729 1505.36 1259.54 1578.13 1250.48 1604.64 1247.11 1605.68 1246.99C1612.81 1246.38 1619.08 1251.66 1619.69 1258.79 1620.3 1265.91 1615.02 1272.19 1607.9 1272.8L1587.34 1275.39 1485.84 1431.66 1503.2 1457.25 1471.77 1453.32 1445.14 1494.33 1445.41 1494.75 1551.04 1465.94 1588.99 1455.08C1595.86 1453.11 1603.03 1457.09 1604.99 1463.97 1606.96 1470.84 1602.98 1478.01 1596.11 1479.98L1562.77 1489.52 1502.72 1582.96 1560.96 1672.6 1462.39 1645.7 1452.63 1660.9 1530.37 1781.89 1668.01 1756.46 1770.66 1756.46 1840.08 1769.32 1926.2 1635.29C1926.27 1635.15 1926.23 1635.15 1926.09 1635.15L1825.95 1662.47 1906.51 1538.48 1875.06 1489.53 1841.72 1479.99C1834.85 1478.02 1830.87 1470.85 1832.84 1463.98 1834.81 1457.1 1841.97 1453.12 1848.84 1455.09L1886.78 1465.92 1931.44 1400.07 1850.45 1275.44 1829.89 1272.85C1823.01 1272.09 1817.94 1266.06 1818.39 1259.15 1818.85 1252.01 1825 1246.6 1832.13 1247.06L1833.16 1247.16 1859.66 1250.53 1932.44 1259.59ZM3312.23 896.5 3606.61 1330.5 3494.58 1316.48C3494.44 1316.47 3494.36 1316.57 3494.44 1316.71L3555.95 1411.38 3655.61 1264.46 3847.96 1548.04 3774.76 1538.88C3774.67 1538.87 3774.61 1538.94 3774.67 1539.03L3895.38 1724.81 3795.23 1697.49C3795.1 1697.45 3795.06 1697.51 3795.13 1697.59L3957.5 1950.29 3877.13 1935.4 3877.13 2163.5 3382.26 2163.5 3382.26 2163.5 3242.2 2163.5 3242.2 2163.5 322.435 2163.5 322.435 1938.37 257.5 1950.4 419.869 1697.69C419.944 1697.55 419.897 1697.55 419.767 1697.55L319.618 1724.87 440.33 1539.09C440.386 1539 440.348 1538.94 440.236 1538.94L367.035 1548.1 559.392 1264.52 693.393 1462.07 738.576 1392.53C738.638 1392.43 738.597 1392.37 738.473 1392.37L657.534 1402.49 870.225 1088.94 1077.3 1394.22 1268.87 1111.8 1470.05 1408.39 1553.58 1279.84C1553.66 1279.71 1553.6 1279.63 1553.45 1279.63L1451.81 1292.35 1718.89 898.612 1985.97 1292.35 1884.33 1279.63C1884.2 1279.62 1884.12 1279.71 1884.2 1279.84L1947.22 1376.82 2065.72 1202.12 2139.2 1310.44 2311.75 1056.07 2488.49 1316.63 2566.17 1202.12 2658.3 1337.94 2876.57 1016.14 3053.82 1277.45Z" stroke="#000000" stroke-width="6.875" stroke-miterlimit="8" fill="none" fill-rule="evenodd"/></g></svg>