<svg width="3792" height="1116" xmlns="http://www.w3.org/2000/svg" xmlns:xlink="http://www.w3.org/1999/xlink" xml:space="preserve" overflow="hidden"><g transform="translate(-153 -2850)"><path d="M2222.97 2856.5 2454.23 3197.36 2468.82 3175.86 2580.63 3340.67 2634.15 3258.32C2634.22 3258.2 2634.18 3258.13 2634.04 3258.13L2544.88 3269.28 2779.17 2923.96 3013.46 3269.28 2924.3 3258.13C2924.19 3258.12 2924.12 3258.2 2924.19 3258.32L3026.23 3415.33 3093.76 3309.12C3093.84 3308.99 3093.79 3308.9 3093.63 3308.9L2986.46 3322.6 3268.07 2898.35 3549.67 3322.6 3442.51 3308.9C3442.37 3308.89 3442.29 3308.99 3442.37 3309.12L3512.61 3419.6 3635.65 3238.24 3827.98 3521.72 3754.79 3512.56C3754.7 3512.56 3754.64 3512.62 3754.7 3512.71L3875.39 3698.42 3775.26 3671.11C3775.13 3671.08 3775.08 3671.14 3775.16 3671.22L3937.5 3923.83 3779.58 3904.86 3779.58 3962.5 225.426 3962.5 225.426 3911.84 160.5 3923.86 322.844 3671.25C322.919 3671.11 322.872 3671.11 322.742 3671.11L222.608 3698.42 343.302 3512.71C343.358 3512.62 343.32 3512.56 343.208 3512.56L270.019 3521.72 462.346 3238.24 584.811 3418.75 633.254 3344.21C633.316 3344.1 633.275 3344.04 633.151 3344.04L552.224 3354.16 764.882 3040.72 977.542 3354.16 896.615 3344.04C896.512 3344.03 896.45 3344.1 896.512 3344.21L1006.83 3513.96 1067.94 3419.93C1068.01 3419.82 1067.96 3419.75 1067.83 3419.75L978.668 3430.9 1212.96 3085.58 1393.05 3351.01 1456.38 3253.56C1456.46 3253.43 1456.41 3253.35 1456.25 3253.35L1354.63 3266.06 1621.67 2872.47 1888.7 3266.06 1787.08 3253.35C1786.95 3253.34 1786.87 3253.43 1786.95 3253.56L1849.96 3350.5 1968.44 3175.86 2029.35 3265.64 2077.96 3190.86C2078.02 3190.74 2077.98 3190.68 2077.84 3190.68L1988.68 3201.83 2222.97 2856.5Z" stroke="#000000" stroke-width="6.875" stroke-miterlimit="8" fill="none" fill-rule="evenodd"/></g></svg>