999
"DXF R12 Output" (www.mydxf.blogspot.com)
 0 
SECTION
 2 
HEADER
 9 
$ACADVER
 1 
AC1009
 9 
$EXTMIN
 10 
 0 
 20 
 0 
 9 
$EXTMAX
 10 
 8.5 
 20 
 11 
 0 
ENDSEC
 0 
SECTION
 2 
ENTITIES
0
POLYLINE
8
Layer 1
62
7
70
1
10
0.000000
20
0.000000
66
1
0
VERTEX
8
Layer 1
10
547.678772
20
293.558660
70
0
0
VERTEX
8
Layer 1
10
608.866236
20
203.372899
70
0
0
VERTEX
8
Layer 1
10
612.726502
20
209.061434
70
0
0
VERTEX
8
Layer 1
10
642.309527
20
165.455509
70
0
0
VERTEX
8
Layer 1
10
656.470009
20
187.243919
70
0
0
VERTEX
8
Layer 1
10
656.440905
20
187.294190
70
0
0
VERTEX
8
Layer 1
10
632.850685
20
184.344090
70
0
0
VERTEX
8
Layer 1
10
694.839836
20
275.709891
70
0
0
VERTEX
8
Layer 1
10
756.828987
20
184.344090
70
0
0
VERTEX
8
Layer 1
10
733.238767
20
187.294190
70
0
0
VERTEX
8
Layer 1
10
733.209663
20
187.243919
70
0
0
VERTEX
8
Layer 1
10
760.207712
20
145.701743
70
0
0
VERTEX
8
Layer 1
10
778.075002
20
173.803103
70
0
0
VERTEX
8
Layer 1
10
778.040606
20
173.861311
70
0
0
VERTEX
8
Layer 1
10
749.685246
20
170.236524
70
0
0
VERTEX
8
Layer 1
10
824.194465
20
282.485862
70
0
0
VERTEX
8
Layer 1
10
898.701038
20
170.236524
70
0
0
VERTEX
8
Layer 1
10
870.348323
20
173.861311
70
0
0
VERTEX
8
Layer 1
10
870.311282
20
173.803103
70
0
0
VERTEX
8
Layer 1
10
888.895592
20
144.571973
70
0
0
VERTEX
8
Layer 1
10
921.449884
20
192.556746
70
0
0
VERTEX
8
Layer 1
10
972.337132
20
117.552757
70
0
0
VERTEX
8
Layer 1
10
952.972303
20
119.976338
70
0
0
VERTEX
8
Layer 1
10
952.948490
20
119.936650
70
0
0
VERTEX
8
Layer 1
10
984.881012
20
70.800941
70
0
0
VERTEX
8
Layer 1
10
958.388317
20
78.026703
70
0
0
VERTEX
8
Layer 1
10
958.361858
20
77.997599
70
0
0
VERTEX
8
Layer 1
10
1001.314262
20
11.161287
70
0
0
VERTEX
8
Layer 1
10
959.531315
20
16.180427
70
0
0
VERTEX
8
Layer 1
10
959.531315
20
0.929862
70
0
0
VERTEX
8
Layer 1
10
19.162587
20
0.929862
70
0
0
VERTEX
8
Layer 1
10
19.162587
20
14.333637
70
0
0
VERTEX
8
Layer 1
10
1.984272
20
11.153350
70
0
0
VERTEX
8
Layer 1
10
44.937734
20
77.989661
70
0
0
VERTEX
8
Layer 1
10
44.910747
20
78.026703
70
0
0
VERTEX
8
Layer 1
10
18.416992
20
70.800941
70
0
0
VERTEX
8
Layer 1
10
50.350573
20
119.936650
70
0
0
VERTEX
8
Layer 1
10
50.325702
20
119.976338
70
0
0
VERTEX
8
Layer 1
10
30.961137
20
117.552757
70
0
0
VERTEX
8
Layer 1
10
81.847592
20
192.556746
70
0
0
VERTEX
8
Layer 1
10
114.249749
20
144.796869
70
0
0
VERTEX
8
Layer 1
10
127.066943
20
164.518886
70
0
0
VERTEX
8
Layer 1
10
127.039691
20
164.563865
70
0
0
VERTEX
8
Layer 1
10
105.627783
20
161.886285
70
0
0
VERTEX
8
Layer 1
10
161.893474
20
244.817180
70
0
0
VERTEX
8
Layer 1
10
218.159695
20
161.886285
70
0
0
VERTEX
8
Layer 1
10
196.747787
20
164.563865
70
0
0
VERTEX
8
Layer 1
10
196.720534
20
164.518886
70
0
0
VERTEX
8
Layer 1
10
225.908802
20
119.605921
70
0
0
VERTEX
8
Layer 1
10
242.077469
20
144.484661
70
0
0
VERTEX
8
Layer 1
10
242.048365
20
144.532286
70
0
0
VERTEX
8
Layer 1
10
218.457615
20
141.582185
70
0
0
VERTEX
8
Layer 1
10
280.447296
20
232.947987
70
0
0
VERTEX
8
Layer 1
10
328.096048
20
162.719721
70
0
0
VERTEX
8
Layer 1
10
344.852090
20
188.503335
70
0
0
VERTEX
8
Layer 1
10
344.817694
20
188.558897
70
0
0
VERTEX
8
Layer 1
10
317.930769
20
185.196047
70
0
0
VERTEX
8
Layer 1
10
388.585014
20
289.333270
70
0
0
VERTEX
8
Layer 1
10
459.236612
20
185.196047
70
0
0
VERTEX
8
Layer 1
10
432.349688
20
188.558897
70
0
0
VERTEX
8
Layer 1
10
432.315292
20
188.503335
70
0
0
VERTEX
8
Layer 1
10
448.986667
20
162.854658
70
0
0
VERTEX
8
Layer 1
10
480.334461
20
209.061434
70
0
0
VERTEX
8
Layer 1
10
496.450211
20
185.307172
70
0
0
VERTEX
8
Layer 1
10
509.311591
20
205.092689
70
0
0
VERTEX
8
Layer 1
10
509.279841
20
205.140314
70
0
0
VERTEX
8
Layer 1
10
485.689620
20
202.190213
70
0
0
VERTEX
8
Layer 1
10
547.678772
20
293.558660
70
0
0
VERTEX
8
Layer 1
10
547.678772
20
293.558660
70
0
0
SEQEND
8
Layer 1
 0 
ENDSEC
 0 
EOF